<svg width="43" height="43" viewBox="0 0 43 43" fill="none" xmlns="http://www.w3.org/2000/svg">
<circle cx="21.0787" cy="21.0787" r="20.5787" stroke="white"/>
<path fill-rule="evenodd" clip-rule="evenodd" d="M20.764 16.5311C18.0788 16.5311 15.9019 18.7079 15.9019 21.3932C15.9019 24.0784 18.0788 26.2553 20.764 26.2553C23.4493 26.2553 25.6261 24.0784 25.6261 21.3932C25.6261 18.7079 23.4493 16.5311 20.764 16.5311ZM17.8468 21.3932C17.8468 23.0043 19.1529 24.3104 20.764 24.3104C22.3752 24.3104 23.6813 23.0043 23.6813 21.3932C23.6813 19.782 22.3752 18.4759 20.764 18.4759C19.1529 18.4759 17.8468 19.782 17.8468 21.3932Z" fill="white"/>
<path d="M26.5986 14.5862C26.0615 14.5862 25.6261 15.0216 25.6261 15.5586C25.6261 16.0957 26.0615 16.5311 26.5986 16.5311C27.1356 16.5311 27.571 16.0957 27.571 15.5586C27.571 15.0216 27.1356 14.5862 26.5986 14.5862Z" fill="white"/>
<path fill-rule="evenodd" clip-rule="evenodd" d="M13.9571 10.6965C11.8089 10.6965 10.0674 12.438 10.0674 14.5862V28.2001C10.0674 30.3483 11.8089 32.0898 13.9571 32.0898H27.571C29.7192 32.0898 31.4607 30.3483 31.4607 28.2001V14.5862C31.4607 12.438 29.7192 10.6965 27.571 10.6965H13.9571ZM27.571 12.6414H13.9571C12.883 12.6414 12.0123 13.5121 12.0123 14.5862V28.2001C12.0123 29.2742 12.883 30.145 13.9571 30.145H27.571C28.6451 30.145 29.5158 29.2742 29.5158 28.2001V14.5862C29.5158 13.5121 28.6451 12.6414 27.571 12.6414Z" fill="white"/>
</svg>
