<svg width="235" height="86" viewBox="0 0 235 86" fill="none" xmlns="http://www.w3.org/2000/svg">
<path d="M45.3514 0C45.3514 0 52.6386 17.8276 21.407 29.8023C4.43648 36.3073 -8.59789 52.98 6.96515 78.7353C8.25402 67.2231 13.7806 41.8402 37.5447 36.0481C37.5447 36.0481 15.4265 44.3187 13.4727 81.7563C24.8379 83.3519 51.4928 84.4242 59.4065 61.293C69.8566 30.7316 45.3514 0 45.3514 0Z" fill="#008F05"/>
<path d="M13.483 81.6005C37.6105 71.9713 55.1662 49.4138 57.5891 22.4855C52.6566 9.18051 45.3514 0 45.3514 0C45.3514 0 52.6386 17.8276 21.407 29.8023C4.43648 36.3073 -8.59789 52.98 6.96515 78.7353C8.25402 67.2231 13.7806 41.8402 37.5447 36.0481C37.5434 36.0482 15.491 44.2982 13.483 81.6005Z" fill="#21B926"/>
<path d="M4.55757 30.3969C5.80329 30.3969 6.81315 29.387 6.81315 28.1413C6.81315 26.8956 5.80329 25.8857 4.55757 25.8857C3.31186 25.8857 2.302 26.8956 2.302 28.1413C2.302 29.387 3.31186 30.3969 4.55757 30.3969Z" fill="#008F05"/>
<path d="M11.6462 27.4965C12.536 27.4965 13.2573 26.7752 13.2573 25.8855C13.2573 24.9957 12.536 24.2744 11.6462 24.2744C10.7564 24.2744 10.0352 24.9957 10.0352 25.8855C10.0352 26.7752 10.7564 27.4965 11.6462 27.4965Z" fill="#21B926"/>
<path d="M10.1963 14.608C12.4207 14.608 14.224 12.8048 14.224 10.5804C14.224 8.35597 12.4207 6.55273 10.1963 6.55273C7.97193 6.55273 6.1687 8.35597 6.1687 10.5804C6.1687 12.8048 7.97193 14.608 10.1963 14.608Z" fill="#21B926"/>
<path d="M22.6016 21.0524C23.3134 21.0524 23.8905 20.4753 23.8905 19.7635C23.8905 19.0517 23.3134 18.4746 22.6016 18.4746C21.8898 18.4746 21.3127 19.0517 21.3127 19.7635C21.3127 20.4753 21.8898 21.0524 22.6016 21.0524Z" fill="#21B926"/>
<path d="M33.3971 16.219C35.4436 16.219 37.1026 14.56 37.1026 12.5136C37.1026 10.4671 35.4436 8.80811 33.3971 8.80811C31.3506 8.80811 29.6917 10.4671 29.6917 12.5136C29.6917 14.56 31.3506 16.219 33.3971 16.219Z" fill="#21B926"/>
<path d="M92.16 39.252C90.408 39.252 88.824 38.952 87.408 38.352C86.016 37.752 84.912 36.888 84.096 35.76C83.28 34.632 82.86 33.3 82.836 31.764H88.236C88.308 32.796 88.668 33.612 89.316 34.212C89.988 34.812 90.9 35.112 92.052 35.112C93.228 35.112 94.152 34.836 94.824 34.284C95.496 33.708 95.832 32.964 95.832 32.052C95.832 31.308 95.604 30.696 95.148 30.216C94.692 29.736 94.116 29.364 93.42 29.1C92.748 28.812 91.812 28.5 90.612 28.164C88.98 27.684 87.648 27.216 86.616 26.76C85.608 26.28 84.732 25.572 83.988 24.636C83.268 23.676 82.908 22.404 82.908 20.82C82.908 19.332 83.28 18.036 84.024 16.932C84.768 15.828 85.812 14.988 87.156 14.412C88.5 13.812 90.036 13.512 91.764 13.512C94.356 13.512 96.456 14.148 98.064 15.42C99.696 16.668 100.596 18.42 100.764 20.676H95.22C95.172 19.812 94.8 19.104 94.104 18.552C93.432 17.976 92.532 17.688 91.404 17.688C90.42 17.688 89.628 17.94 89.028 18.444C88.452 18.948 88.164 19.68 88.164 20.64C88.164 21.312 88.38 21.876 88.812 22.332C89.268 22.764 89.82 23.124 90.468 23.412C91.14 23.676 92.076 23.988 93.276 24.348C94.908 24.828 96.24 25.308 97.272 25.788C98.304 26.268 99.192 26.988 99.936 27.948C100.68 28.908 101.052 30.168 101.052 31.728C101.052 33.072 100.704 34.32 100.008 35.472C99.312 36.624 98.292 37.548 96.948 38.244C95.604 38.916 94.008 39.252 92.16 39.252ZM120.83 34.212H110.822L109.166 39H103.874L112.91 13.836H118.778L127.814 39H122.486L120.83 34.212ZM119.462 30.18L115.826 19.668L112.189 30.18H119.462ZM148.687 21.432C148.111 20.376 147.319 19.572 146.311 19.02C145.303 18.468 144.127 18.192 142.783 18.192C141.295 18.192 139.975 18.528 138.823 19.2C137.671 19.872 136.771 20.832 136.123 22.08C135.475 23.328 135.151 24.768 135.151 26.4C135.151 28.08 135.475 29.544 136.123 30.792C136.795 32.04 137.719 33 138.895 33.672C140.071 34.344 141.439 34.68 142.999 34.68C144.919 34.68 146.491 34.176 147.715 33.168C148.939 32.136 149.743 30.708 150.127 28.884H141.487V25.032H155.095V29.424C154.759 31.176 154.039 32.796 152.935 34.284C151.831 35.772 150.403 36.972 148.651 37.884C146.923 38.772 144.979 39.216 142.819 39.216C140.395 39.216 138.199 38.676 136.231 37.596C134.287 36.492 132.751 34.968 131.623 33.024C130.519 31.08 129.967 28.872 129.967 26.4C129.967 23.928 130.519 21.72 131.623 19.776C132.751 17.808 134.287 16.284 136.231 15.204C138.199 14.1 140.383 13.548 142.783 13.548C145.615 13.548 148.075 14.244 150.163 15.636C152.251 17.004 153.691 18.936 154.483 21.432H148.687ZM163.864 35.004H172.144V39H158.824V13.872H163.864V35.004ZM195.327 13.872L186.831 30.252V39H181.791V30.252L173.259 13.872H178.947L184.347 25.356L189.711 13.872H195.327ZM212.418 39L203.274 27.804V39H198.234V13.872H203.274V25.14L212.418 13.872H218.502L208.134 26.328L218.79 39H212.418Z" fill="#21B926"/>
<path d="M92.004 71.196C90.1747 71.196 88.4947 70.7667 86.964 69.908C85.4333 69.0493 84.22 67.864 83.324 66.352C82.428 64.8213 81.98 63.0947 81.98 61.172C81.98 59.268 82.428 57.56 83.324 56.048C84.22 54.5173 85.4333 53.3227 86.964 52.464C88.4947 51.6053 90.1747 51.176 92.004 51.176C93.852 51.176 95.532 51.6053 97.044 52.464C98.5747 53.3227 99.7787 54.5173 100.656 56.048C101.552 57.56 102 59.268 102 61.172C102 63.0947 101.552 64.8213 100.656 66.352C99.7787 67.864 98.5747 69.0493 97.044 69.908C95.5133 70.7667 93.8333 71.196 92.004 71.196ZM92.004 67.696C93.18 67.696 94.216 67.4347 95.112 66.912C96.008 66.3707 96.708 65.6053 97.212 64.616C97.716 63.6267 97.968 62.4787 97.968 61.172C97.968 59.8653 97.716 58.7267 97.212 57.756C96.708 56.7667 96.008 56.0107 95.112 55.488C94.216 54.9653 93.18 54.704 92.004 54.704C90.828 54.704 89.7827 54.9653 88.868 55.488C87.972 56.0107 87.272 56.7667 86.768 57.756C86.264 58.7267 86.012 59.8653 86.012 61.172C86.012 62.4787 86.264 63.6267 86.768 64.616C87.272 65.6053 87.972 66.3707 88.868 66.912C89.7827 67.4347 90.828 67.696 92.004 67.696ZM109.48 58.708V66.212C109.48 66.7347 109.602 67.1173 109.844 67.36C110.106 67.584 110.535 67.696 111.132 67.696H112.952V71H110.488C107.184 71 105.532 69.3947 105.532 66.184V58.708H103.684V55.488H105.532V51.652H109.48V55.488H112.952V58.708H109.48ZM130.612 55.488L121.008 78.336H116.836L120.196 70.608L113.98 55.488H118.376L122.38 66.324L126.44 55.488H130.612Z" fill="#21B926"/>
</svg>
