<svg width="43" height="43" viewBox="0 0 43 43" fill="none" xmlns="http://www.w3.org/2000/svg">
<circle cx="21.9213" cy="21.0787" r="20.5787" stroke="white"/>
<path d="M16.8567 23.7796C16.955 22.9654 17.289 22.5096 17.9182 22.0423C18.8185 21.4095 19.9431 21.7675 19.9431 21.7675V19.6438C20.2165 19.6368 20.49 19.653 20.7605 19.6922V22.4252C20.7605 22.4252 19.6362 22.0672 18.7359 22.7004C18.107 23.1673 17.7724 23.6235 17.6744 24.4376C17.6713 24.8797 17.7543 25.4576 18.1363 25.9573C18.0419 25.9088 17.9456 25.8537 17.8475 25.7917C17.0059 25.2266 16.8526 24.3787 16.8567 23.7796ZM25.4041 15.7171C24.7848 15.0384 24.5505 14.3532 24.4659 13.8718H25.245C25.245 13.8718 25.0896 15.1339 26.2218 16.3751L26.2375 16.3918C25.9324 16.1999 25.6525 15.9733 25.4041 15.7171ZM29.1573 17.6411V20.3192C29.1573 20.3192 28.1631 20.2802 27.4273 20.0931C26.4 19.8313 25.7397 19.4298 25.7397 19.4298C25.7397 19.4298 25.2836 19.1434 25.2467 19.1235V24.6536C25.2467 24.9615 25.1624 25.7305 24.9053 26.3719C24.5697 27.2109 24.0517 27.7616 23.9565 27.8742C23.9565 27.8742 23.3266 28.6186 22.2153 29.1199C21.2135 29.5721 20.334 29.5607 20.0712 29.5721C20.0712 29.5721 18.5508 29.6324 17.1828 28.7433C16.8869 28.5473 16.6108 28.3254 16.3579 28.0803L16.3647 28.0852C17.7331 28.9743 19.2531 28.9141 19.2531 28.9141C19.5164 28.9026 20.3958 28.9141 21.3972 28.4619C22.5075 27.9606 23.1384 27.2161 23.1384 27.2161C23.2327 27.1035 23.753 26.5528 24.0872 25.7135C24.3436 25.0725 24.4287 24.3031 24.4287 23.9952V18.4658C24.4655 18.486 24.9213 18.7724 24.9213 18.7724C24.9213 18.7724 25.582 19.1742 26.6093 19.4357C27.3454 19.6228 28.3392 19.6618 28.3392 19.6618V17.5633C28.6793 17.6395 28.9692 17.6601 29.1573 17.6411Z" fill="white"/>
<path d="M28.3396 17.5633V19.6611C28.3396 19.6611 27.3457 19.6222 26.6096 19.435C25.5823 19.1732 24.9216 18.7717 24.9216 18.7717C24.9216 18.7717 24.4658 18.4854 24.429 18.4651V23.9959C24.429 24.3038 24.3446 25.0731 24.0876 25.7141C23.7519 26.5535 23.234 27.1042 23.1388 27.2168C23.1388 27.2168 22.5085 27.9612 21.3975 28.4625C20.3962 28.9147 19.5167 28.9033 19.2534 28.9147C19.2534 28.9147 17.7335 28.975 16.3651 28.0859L16.3582 28.081C16.2138 27.9411 16.0778 27.7934 15.9509 27.6386C15.5142 27.1062 15.2466 26.4766 15.1793 26.2969C15.1792 26.2962 15.1792 26.2954 15.1793 26.2946C15.0711 25.9825 14.8437 25.2328 14.8748 24.5067C14.9297 23.2256 15.3804 22.4393 15.4996 22.2423C15.8151 21.7051 16.2256 21.2245 16.7126 20.8218C17.1424 20.4743 17.6296 20.1978 18.1541 20.0037C18.7211 19.7758 19.3283 19.6536 19.9431 19.6438V21.7675C19.9431 21.7675 18.8185 21.4108 17.9185 22.0423C17.2893 22.5096 16.9554 22.9654 16.857 23.7796C16.8529 24.3787 17.0062 25.2266 17.8471 25.792C17.9452 25.8542 18.0415 25.9094 18.136 25.9576C18.2829 26.1486 18.4617 26.315 18.6652 26.4501C19.4866 26.97 20.1749 27.0064 21.0551 26.6687C21.642 26.4429 22.0838 25.934 22.2886 25.3702C22.4174 25.0181 22.4156 24.6637 22.4156 24.2973V13.8718H24.4641C24.5488 14.3532 24.783 15.0384 25.4024 15.7171C25.6508 15.9733 25.9306 16.1999 26.2358 16.3918C26.3259 16.4851 26.7868 16.9461 27.3785 17.2292C27.6844 17.3755 28.0069 17.4876 28.3396 17.5633Z" fill="white"/>
<path d="M14.364 25.645V25.6467L14.4148 25.7844C14.409 25.7684 14.3901 25.7196 14.364 25.645Z" fill="white"/>
<path d="M18.1541 20.0039C17.6296 20.198 17.1424 20.4745 16.7126 20.822C16.2254 21.2255 15.8151 21.7072 15.4999 22.2454C15.3808 22.4417 14.9301 23.2287 14.8751 24.5098C14.8441 25.2359 15.0715 25.9856 15.1797 26.2978C15.1796 26.2985 15.1796 26.2993 15.1797 26.3001C15.248 26.4781 15.5146 27.1076 15.9513 27.6417C16.0781 27.7965 16.2141 27.9442 16.3586 28.0841C15.8957 27.7773 15.4829 27.4063 15.1336 26.9833C14.7007 26.4555 14.4337 25.8324 14.364 25.6485C14.364 25.6472 14.364 25.6459 14.364 25.6446V25.6423C14.2555 25.3305 14.0274 24.5805 14.0592 23.8534C14.1141 22.5723 14.5648 21.786 14.6839 21.589C14.999 21.0507 15.4094 20.5691 15.8967 20.1655C16.3264 19.818 16.8135 19.5415 17.3381 19.3475C17.6653 19.2174 18.0062 19.1214 18.3549 19.0612C18.8803 18.9732 19.4169 18.9656 19.9448 19.0386V19.6439C19.3295 19.6536 18.7217 19.7758 18.1541 20.0039Z" fill="white"/>
<path d="M24.4659 13.872H22.4174V24.2978C22.4174 24.6643 22.4174 25.0177 22.2904 25.3707C22.0835 25.9342 21.6434 26.4431 21.0568 26.6688C20.1763 27.0078 19.488 26.9702 18.6669 26.4503C18.4631 26.3157 18.2838 26.1499 18.1364 25.9594C18.8359 26.3171 19.4621 26.3109 20.2378 26.0124C20.824 25.7866 21.2648 25.2778 21.471 24.714C21.6 24.3619 21.5983 24.0075 21.5983 23.6413V13.2136H24.427C24.427 13.2136 24.3952 13.4728 24.4659 13.872ZM28.3396 16.9833V17.5634C28.0075 17.4876 27.6856 17.3755 27.3802 17.2293C26.7885 16.9463 26.3276 16.4852 26.2375 16.392C26.3421 16.4578 26.4506 16.5177 26.5625 16.5713C27.2819 16.9155 27.9903 17.0183 28.3396 16.9833Z" fill="white"/>
</svg>
