<svg width="460" height="460" viewBox="0 0 460 460" fill="none" xmlns="http://www.w3.org/2000/svg">
<g clip-path="url(#clip0_209_2740)">
<mask id="path-1-inside-1_209_2740" fill="white">
<path d="M362.429 62.6357L138.768 167.783V235.304L99.751 217.955V150.434L323.412 45.2873L248.289 11.8854C238.23 7.41319 221.77 7.41319 211.711 11.8854L26.7259 94.1367C11.9887 100.689 -0.0374939 119.246 8.78431e-05 135.374L0.455578 328.194C0.493911 344.494 12.7884 363.071 27.776 369.478L212.277 448.349C222.006 452.508 237.929 452.508 247.66 448.351L432.223 369.478C447.21 363.073 459.506 344.498 459.544 328.199L460 135.374C460.038 119.246 448.012 100.689 433.274 94.1367L362.429 62.6357ZM418.208 216.978L407.382 222.001L407.163 298.181C407.153 301.51 404.212 305.473 400.603 307.03L384.396 314.027C380.843 315.561 377.968 314.139 377.966 310.853L377.911 235.674L367.425 240.538C362.493 242.826 359.406 239.239 361.855 234.074L386.92 181.192C389.45 175.854 395.794 172.774 398.333 175.669L424.055 204.992C426.622 207.919 423.363 214.587 418.208 216.978ZM312.376 339.32C312.404 342.509 309.708 346.265 306.362 347.709L291.333 354.198C288.037 355.62 285.341 354.219 285.303 351.071L284.423 279.045L274.698 283.556C270.125 285.678 267.206 282.197 269.432 277.284L292.214 227.014C294.512 221.943 300.387 219.091 302.784 221.899L327.062 250.338C329.487 253.177 326.527 259.51 321.754 261.723L311.729 266.374L312.376 339.32ZM436.099 318.406C436.088 320.079 434.584 322.063 432.741 322.838L261.071 394.957C259.469 395.631 258.152 394.925 258.129 393.382L257.997 384.992C257.973 383.445 259.252 381.637 260.857 380.954L432.832 307.695C434.678 306.909 436.168 307.63 436.157 309.308L436.099 318.406Z"/>
</mask>
<path d="M362.429 62.6357L366.086 54.4121L362.325 52.7398L358.6 54.4909L362.429 62.6357ZM138.768 167.783L134.939 159.639L129.768 162.069V167.783H138.768ZM138.768 235.304L135.112 243.528L147.768 249.156V235.304H138.768ZM99.751 217.955H90.751V223.803L96.0943 226.179L99.751 217.955ZM99.751 150.434L95.9219 142.289L90.751 144.72V150.434H99.751ZM323.412 45.2873L327.241 53.4321L345.051 45.0592L327.068 37.0635L323.412 45.2873ZM248.289 11.8854L251.945 3.66168L251.945 3.66157L248.289 11.8854ZM211.711 11.8854L208.055 3.66157L208.055 3.6617L211.711 11.8854ZM26.7259 94.1367L23.0694 85.913L23.0694 85.913L26.7259 94.1367ZM8.78431e-05 135.374L-8.99989 135.395L-8.99989 135.396L8.78431e-05 135.374ZM0.455578 328.194L9.45555 328.173L9.45555 328.173L0.455578 328.194ZM27.776 369.478L24.238 377.754L24.2383 377.754L27.776 369.478ZM212.277 448.349L215.814 440.073L215.814 440.073L212.277 448.349ZM247.66 448.351L251.196 456.627L251.196 456.627L247.66 448.351ZM432.223 369.478L435.76 377.754L435.76 377.754L432.223 369.478ZM459.544 328.199L450.544 328.177L450.544 328.177L459.544 328.199ZM460 135.374L451 135.353L451 135.353L460 135.374ZM433.274 94.1367L429.618 102.36L429.618 102.361L433.274 94.1367ZM418.208 216.978L414.421 208.813L414.42 208.814L418.208 216.978ZM407.382 222.001L403.594 213.837L398.399 216.248L398.382 221.975L407.382 222.001ZM407.163 298.181L416.162 298.208L416.162 298.207L407.163 298.181ZM400.603 307.03L397.037 298.767L397.036 298.767L400.603 307.03ZM384.396 314.027L380.828 305.764L380.828 305.765L384.396 314.027ZM377.966 310.853L386.966 310.847L386.966 310.847L377.966 310.853ZM377.911 235.674L386.911 235.667L386.901 221.582L374.124 227.51L377.911 235.674ZM367.425 240.538L371.212 248.703L371.213 248.703L367.425 240.538ZM361.855 234.074L369.987 237.929L369.987 237.929L361.855 234.074ZM386.92 181.192L395.053 185.047L395.053 185.046L386.92 181.192ZM398.333 175.669L391.566 181.603L391.567 181.604L398.333 175.669ZM424.055 204.992L417.289 210.927L417.289 210.927L424.055 204.992ZM312.376 339.32L321.376 339.241L321.376 339.24L312.376 339.32ZM306.362 347.709L309.929 355.972L309.93 355.972L306.362 347.709ZM291.333 354.198L287.766 345.935L287.766 345.935L291.333 354.198ZM285.303 351.071L294.302 350.963L294.302 350.961L285.303 351.071ZM284.423 279.045L293.422 278.935L293.252 265.027L280.636 270.88L284.423 279.045ZM274.698 283.556L270.911 275.392L270.911 275.392L274.698 283.556ZM269.432 277.284L261.235 273.569L261.235 273.569L269.432 277.284ZM292.214 227.014L300.412 230.729L300.412 230.729L292.214 227.014ZM302.784 221.899L295.939 227.743L295.939 227.743L302.784 221.899ZM327.062 250.338L320.217 256.182L320.219 256.183L327.062 250.338ZM321.754 261.723L317.968 253.559L317.967 253.559L321.754 261.723ZM311.729 266.374L307.941 258.21L302.678 260.652L302.729 266.454L311.729 266.374ZM436.099 318.406L445.099 318.467L445.099 318.464L436.099 318.406ZM432.741 322.838L436.226 331.135L436.229 331.134L432.741 322.838ZM261.071 394.957L257.585 386.66L257.583 386.661L261.071 394.957ZM258.129 393.382L267.127 393.246L267.127 393.241L258.129 393.382ZM257.997 384.992L248.998 385.132L248.998 385.133L257.997 384.992ZM260.857 380.954L264.383 389.235L264.384 389.234L260.857 380.954ZM432.832 307.695L436.36 315.975L436.36 315.975L432.832 307.695ZM436.157 309.308L427.157 309.247L427.157 309.25L436.157 309.308ZM358.6 54.4909L134.939 159.639L142.597 175.928L366.258 70.7806L358.6 54.4909ZM129.768 167.783V235.304H147.768V167.783H129.768ZM142.425 227.08L103.408 209.731L96.0943 226.179L135.112 243.528L142.425 227.08ZM108.751 217.955V150.434H90.751V217.955H108.751ZM103.58 158.579L327.241 53.4321L319.583 37.1424L95.9219 142.289L103.58 158.579ZM327.068 37.0635L251.945 3.66168L244.632 20.1092L319.755 53.511L327.068 37.0635ZM251.945 3.66157C245.437 0.768029 237.473 -0.46875 230 -0.46875C222.527 -0.46875 214.563 0.768029 208.055 3.66157L215.368 20.1093C218.918 18.5306 224.214 17.5312 230 17.5312C235.786 17.5312 241.082 18.5306 244.633 20.1093L251.945 3.66157ZM208.055 3.6617L23.0694 85.913L30.3825 102.36L215.368 20.1091L208.055 3.6617ZM23.0694 85.913C13.7653 90.0499 5.83639 97.6808 0.269866 106.27C-5.29666 114.859 -9.02361 125.213 -8.99989 135.395L9.00006 135.353C8.98621 129.407 11.2535 122.419 15.375 116.059C19.4965 109.7 24.9493 104.776 30.3825 102.36L23.0694 85.913ZM-8.99989 135.396L-8.5444 328.215L9.45555 328.173L9.00006 135.353L-8.99989 135.396ZM-8.5444 328.215C-8.52022 338.497 -4.69013 348.908 1.00448 357.513C6.6991 366.118 14.7848 373.712 24.238 377.754L31.314 361.203C25.7796 358.837 20.2242 353.939 16.0151 347.579C11.806 341.219 9.46971 334.191 9.45555 328.173L-8.5444 328.215ZM24.2383 377.754L208.739 456.624L215.814 440.073L31.3136 361.203L24.2383 377.754ZM208.739 456.624C215.046 459.32 222.748 460.468 229.967 460.469C237.187 460.469 244.889 459.322 251.196 456.627L244.124 440.075C240.7 441.538 235.576 442.469 229.968 442.469C224.361 442.468 219.237 441.537 215.814 440.073L208.739 456.624ZM251.196 456.627L435.76 377.754L428.687 361.202L244.123 440.075L251.196 456.627ZM435.76 377.754C445.214 373.714 453.3 366.12 458.994 357.516C464.689 348.912 468.52 338.501 468.544 328.22L450.544 328.177C450.53 334.195 448.193 341.222 443.984 347.581C439.775 353.941 434.22 358.837 428.687 361.202L435.76 377.754ZM468.544 328.22L469 135.396L451 135.353L450.544 328.177L468.544 328.22ZM469 135.396C469.024 125.213 465.298 114.859 459.731 106.27C454.164 97.6807 446.235 90.0498 436.931 85.9129L429.618 102.361C435.051 104.776 440.504 109.7 444.626 116.059C448.747 122.419 451.014 129.407 451 135.353L469 135.396ZM436.931 85.913L366.086 54.4121L358.772 70.8594L429.618 102.36L436.931 85.913ZM414.42 208.814L403.594 213.837L411.17 230.165L421.996 225.142L414.42 208.814ZM398.382 221.975L398.163 298.155L416.162 298.207L416.382 222.027L398.382 221.975ZM398.163 298.155C398.164 297.689 398.261 297.467 398.245 297.509C398.233 297.54 398.166 297.69 398.003 297.91C397.844 298.125 397.647 298.332 397.442 298.5C397.234 298.67 397.086 298.746 397.037 298.767L404.169 315.294C407.615 313.807 410.459 311.332 412.462 308.631C414.408 306.006 416.15 302.354 416.162 298.208L398.163 298.155ZM397.036 298.767L380.828 305.764L387.963 322.29L404.17 315.293L397.036 298.767ZM380.828 305.765C380.618 305.855 381.905 305.225 383.836 306.179C384.839 306.674 385.716 307.484 386.294 308.499C386.852 309.481 386.966 310.355 386.966 310.847L368.966 310.859C368.969 315.359 371.155 319.991 375.863 322.317C380.12 324.42 384.62 323.733 387.963 322.29L380.828 305.765ZM386.966 310.847L386.911 235.667L368.911 235.68L368.966 310.86L386.966 310.847ZM374.124 227.51L363.638 232.374L371.213 248.703L381.699 243.838L374.124 227.51ZM363.638 232.374C363.496 232.44 364.006 232.162 365.033 232.265C366.164 232.38 367.591 232.95 368.692 234.228C370.892 236.783 369.539 238.874 369.987 237.929L353.722 230.218C351.722 234.438 350.688 240.906 355.053 245.974C359.778 251.461 366.737 250.779 371.212 248.703L363.638 232.374ZM369.987 237.929L395.053 185.047L378.788 177.337L353.722 230.219L369.987 237.929ZM395.053 185.046C395.212 184.71 395.465 184.348 395.79 184.021C396.125 183.685 396.418 183.505 396.547 183.443C396.733 183.353 396.375 183.585 395.516 183.555C394.497 183.519 392.853 183.07 391.566 181.603L405.1 169.735C399.707 163.586 392.1 165.596 388.7 167.243C384.66 169.2 380.943 172.789 378.787 177.337L395.053 185.046ZM391.567 181.604L417.289 210.927L430.821 199.057L405.099 169.735L391.567 181.604ZM417.289 210.927C416.088 209.558 415.938 208.131 415.952 207.554C415.964 207.027 416.09 206.93 415.94 207.238C415.811 207.502 415.573 207.859 415.241 208.197C414.909 208.534 414.609 208.726 414.421 208.813L421.994 225.142C426.653 222.982 430.175 219.109 432.115 215.134C433.745 211.796 435.802 204.735 430.82 199.057L417.289 210.927ZM303.377 339.398C303.374 339.157 303.398 338.977 303.419 338.866C303.441 338.754 303.462 338.693 303.467 338.681C303.471 338.667 303.436 338.763 303.321 338.924C303.208 339.081 303.072 339.226 302.94 339.337C302.806 339.449 302.744 339.469 302.794 339.447L309.93 355.972C313.311 354.512 316.049 352.062 317.948 349.414C319.804 346.826 321.411 343.262 321.376 339.241L303.377 339.398ZM302.795 339.447L287.766 345.935L294.9 362.461L309.929 355.972L302.795 339.447ZM287.766 345.935C287.783 345.927 289.242 345.322 291.241 346.36C292.255 346.886 293.099 347.707 293.647 348.685C294.178 349.632 294.297 350.474 294.302 350.963L276.304 351.178C276.355 355.483 278.421 359.987 282.951 362.337C287.132 364.507 291.587 363.891 294.9 362.461L287.766 345.935ZM294.302 350.961L293.422 278.935L275.424 279.155L276.304 351.181L294.302 350.961ZM280.636 270.88L270.911 275.392L278.486 291.72L288.21 287.209L280.636 270.88ZM270.911 275.392C270.926 275.385 271.081 275.314 271.374 275.258C271.669 275.201 272.121 275.157 272.694 275.225C273.938 275.372 275.355 276.016 276.409 277.273C278.479 279.739 277.289 281.751 277.63 280.999L261.235 273.569C259.349 277.73 258.505 283.939 262.621 288.844C267.173 294.268 273.983 293.809 278.486 291.72L270.911 275.392ZM277.63 280.999L300.412 230.729L284.017 223.299L261.235 273.569L277.63 280.999ZM300.412 230.729C300.528 230.473 300.713 230.199 300.949 229.957C301.062 229.841 301.168 229.751 301.256 229.686C301.346 229.621 301.394 229.598 301.386 229.602C301.381 229.604 301.279 229.654 301.071 229.703C300.867 229.752 300.492 229.816 299.974 229.789C298.814 229.728 297.176 229.192 295.939 227.743L309.629 216.056C304.411 209.943 296.972 211.739 293.538 213.403C289.58 215.32 286.029 218.858 284.017 223.3L300.412 230.729ZM295.939 227.743L320.217 256.182L333.907 244.495L309.629 216.056L295.939 227.743ZM320.219 256.183C319.08 254.85 318.921 253.483 318.928 252.906C318.933 252.37 319.06 252.228 318.952 252.459C318.862 252.653 318.687 252.925 318.444 253.179C318.201 253.432 318.015 253.537 317.968 253.559L325.541 269.888C330.098 267.774 333.454 263.947 335.263 260.071C336.811 256.754 338.603 249.993 333.906 244.493L320.219 256.183ZM317.967 253.559L307.941 258.21L315.517 274.539L325.542 269.887L317.967 253.559ZM302.729 266.454L303.377 339.4L321.376 339.24L320.729 266.295L302.729 266.454ZM427.099 318.346C427.105 317.449 427.303 316.78 427.459 316.386C427.62 315.98 427.799 315.701 427.934 315.523C428.159 315.225 428.54 314.841 429.252 314.541L436.229 331.134C438.784 330.06 440.838 328.296 442.279 326.395C443.659 324.575 445.076 321.819 445.099 318.467L427.099 318.346ZM429.255 314.54L257.585 386.66L264.557 403.255L436.226 331.135L429.255 314.54ZM257.583 386.661C258.51 386.271 260.743 385.721 263.256 387.067C266.069 388.573 267.098 391.309 267.127 393.246L249.13 393.518C249.182 396.997 250.881 400.858 254.759 402.935C258.338 404.851 262.031 404.317 264.56 403.254L257.583 386.661ZM267.127 393.241L266.996 384.851L248.998 385.133L249.13 393.523L267.127 393.241ZM266.996 384.852C267.021 386.484 266.423 387.48 266.161 387.85C265.861 388.274 265.331 388.831 264.383 389.235L257.331 372.674C254.778 373.761 252.806 375.564 251.471 377.448C250.174 379.28 248.949 381.954 248.998 385.132L266.996 384.852ZM264.384 389.234L436.36 315.975L429.305 299.415L257.33 372.674L264.384 389.234ZM436.36 315.975C435.749 316.235 433.731 316.872 431.264 315.676C429.982 315.054 428.851 314.035 428.094 312.713C427.354 311.423 427.151 310.17 427.157 309.247L445.157 309.368C445.182 305.581 443.286 301.5 439.117 299.479C435.446 297.699 431.761 298.368 429.305 299.415L436.36 315.975ZM427.157 309.25L427.099 318.349L445.099 318.464L445.157 309.365L427.157 309.25Z" fill="#21B926" mask="url(#path-1-inside-1_209_2740)"/>
</g>
<defs>
<clipPath id="clip0_209_2740">
<rect width="460" height="460" fill="white"/>
</clipPath>
</defs>
</svg>
