<svg width="67" height="67" viewBox="0 0 67 67" fill="none" xmlns="http://www.w3.org/2000/svg">
<circle cx="33.5" cy="33.5" r="32" stroke="white" stroke-width="3"/>
<g clip-path="url(#clip0_16_880)">
<path d="M39.8862 11.2494C38.4687 11.1313 37.1187 11.4182 35.7987 12.1251C34.0362 13.0682 32.78 14.5157 32.2137 16.4001V16.5257L32.1481 16.9663L31.8969 16.5257L31.2687 15.3951C30.2637 13.8257 29.0075 12.8826 27.4362 12.4438C26.0562 12.1326 24.9237 12.2619 23.7312 12.8938C22.4094 13.7113 21.6575 14.9676 21.3425 16.7282C21.0275 18.5507 21.3425 20.3094 22.2837 22.0663L22.7262 22.6963L21.2131 22.1957C19.3287 21.7532 17.5681 22.0007 15.8075 22.9457C13.985 23.8813 12.8562 25.2051 12.1025 27.0313C11.4087 28.7901 11.4725 30.4869 12.3519 32.0563C12.7306 32.7501 13.2969 33.3126 13.7994 33.6913C14.5531 34.4451 15.4962 34.8838 16.6269 35.0713L17.0656 35.1951L16.1244 36.0163C15.2431 36.7701 14.7406 37.7094 14.4256 38.6526C14.1106 39.7832 14.2381 40.9157 14.8681 41.9844C15.1869 42.4869 15.4944 42.9276 15.9969 43.2407C16.4994 43.6813 17.1294 43.9963 17.8831 44.0582C19.2669 44.3769 20.7106 44.3732 22.2819 43.8707L21.1494 45.755L20.8344 46.5726C20.2062 48.5863 20.3975 50.3413 21.3406 52.1657C21.7812 52.8594 22.2781 53.4876 22.7844 54.0519C23.5344 54.7419 24.4831 55.1807 25.6156 55.4957C27.4981 55.9982 29.3844 55.9382 31.2031 54.9951C32.9656 54.0519 34.0962 52.5388 34.6625 50.6544L34.7225 50.2794C35.9169 51.5975 37.0475 52.4788 38.3075 52.7919C39.5637 53.1707 40.82 53.1107 41.9525 52.3551C43.0212 51.7269 43.7769 50.6563 44.1537 49.3363C44.4687 47.9525 44.4687 46.5726 44.1537 45.0013C44.7819 45.4419 45.41 45.7513 46.1637 45.9426C48.1756 46.5707 49.9325 46.5051 51.695 45.5676C53.39 44.6226 54.5225 43.1151 55.0887 41.1669C55.5912 39.2826 55.4675 37.4601 54.5262 35.6994L54.2075 35.1932C53.7069 34.4394 53.2006 33.6857 52.445 33.1832C51.8187 32.7426 51.0669 32.4294 50.375 32.1144C52.325 31.1713 53.705 29.8513 54.3312 28.1544C54.7737 26.7707 54.65 25.6382 54.0181 24.5076V24.3838C53.2644 23.1276 52.2612 22.3119 50.69 21.8713C49.7469 21.6838 48.68 21.6801 47.7387 21.7438L45.6612 22.1844L46.355 20.6132C46.9812 18.6013 46.7956 16.6532 45.7269 14.8307L45.5394 14.5119C44.5962 12.9407 43.2144 11.9994 41.3281 11.4988C40.8406 11.3732 40.3587 11.2869 39.8862 11.2494ZM38.8175 13.9007C39.4231 13.8444 40.0362 13.9232 40.6306 14.1444C41.9506 14.4557 42.8937 15.1457 43.4619 16.2144V16.2201C43.7769 16.8482 43.9625 17.6001 43.9625 18.4176L43.775 19.8013C43.5237 20.4951 43.2087 21.1194 42.8319 21.6838L37.1769 28.6026C36.6144 28.1619 35.9825 27.8469 35.3544 27.5338L34.7244 20.4276L34.6625 17.9151L34.7225 17.2869C35.0375 16.0307 35.9187 15.0876 37.0475 14.4594C37.6137 14.1444 38.21 13.9551 38.8175 13.9007ZM25.9119 14.9076C26.1631 14.9001 26.4294 14.9638 26.6806 15.0876C27.8112 15.4026 28.7544 16.2182 29.5081 17.7876C29.8269 18.4176 30.1381 19.0438 30.2637 19.7994L31.52 27.2188L30.575 27.5338L24.9819 21.4363L24.6669 20.8101C24.1606 19.6776 23.8512 18.6107 23.9769 17.4782V17.4744C24.0406 16.3438 24.4794 15.5938 25.2331 15.1532C25.4206 14.9957 25.6587 14.9151 25.9081 14.9094L25.9119 14.9076ZM48.6556 24.3444C48.9369 24.3444 49.2125 24.3576 49.4956 24.3894C50.5644 24.5169 51.3181 25.0213 51.695 25.7769L51.9481 26.5888L51.8225 27.2169C51.3837 28.3476 50.4387 29.2307 48.8694 29.9207C48.2412 30.2357 47.5512 30.3613 46.7975 30.4832L39.0669 31.4263L38.9412 30.9857L38.8137 30.7982L39.0669 30.4851L45.4175 25.2051L46.1675 24.8938L46.1712 24.8901C47.015 24.5151 47.8306 24.3538 48.6612 24.3463L48.6556 24.3444ZM19.6662 24.6876C19.9662 24.7026 20.2737 24.7494 20.585 24.8282V24.8319L22.2875 25.5201L27.8187 29.5457C27.3125 30.1757 27.0031 30.8019 26.8137 31.4301L17.7612 32.5607L17.135 32.4369C16.0044 32.2494 15.2469 31.7432 14.7425 30.8057C14.2362 29.8626 14.2419 28.9194 14.6187 27.9744C15.0594 26.7819 15.875 25.8369 17.0675 25.3363C17.9169 24.8638 18.7644 24.6369 19.6662 24.6876ZM33.0912 29.7313C34.2237 29.7313 35.2944 30.1738 35.9862 30.8638C36.8675 31.7451 37.2425 32.6882 37.2425 33.8188C37.2425 34.9494 36.8675 36.0163 35.9862 36.7701C35.1687 37.5876 34.2237 38.0263 33.0931 38.0263C31.9006 38.0263 30.8994 37.5857 30.1437 36.7701C29.3262 36.0163 28.8875 34.9513 28.8875 33.8188C28.8875 32.6882 29.3262 31.7432 30.1437 30.8638C30.8975 30.1701 31.9006 29.7313 33.095 29.7313H33.0912ZM48.8694 34.5688L49.4994 34.6344C50.4444 34.9494 51.3237 35.5119 51.8244 36.4532C52.4544 37.1469 52.7675 38.0901 52.7675 39.1588L52.58 40.4151C52.2669 41.6713 51.5112 42.6144 50.4425 43.1151C49.3119 43.7451 48.1794 43.8707 46.9231 43.4338C46.1694 43.2463 45.6669 42.9313 45.2281 42.4288L38.6281 36.9576L39.0687 36.0163L39.2562 35.2607L46.3587 34.6326L48.8712 34.5669L48.8694 34.5688ZM36.4269 39.1588L39.065 41.8588L40.6962 43.8707L41.015 44.5026C41.5775 45.5713 41.8925 46.5744 41.765 47.7688C41.6412 48.8976 41.2644 49.7151 40.5087 50.0301C40.07 50.3451 39.5675 50.3488 39.065 50.2832C37.8706 49.9719 36.9275 49.0307 36.2375 47.5213L35.4819 45.4438L34.5406 39.9744L35.6056 39.5994L36.4231 39.1588H36.4269ZM29.6394 39.2863C30.2656 39.5994 30.8956 39.9126 31.5894 39.9744C31.7131 42.1119 31.8987 44.3751 32.2119 46.8257V49.3419L32.15 49.9663C31.7075 51.0969 30.9537 52.0419 29.825 52.5444C28.6925 53.1726 27.5 53.2982 26.3656 52.9851C25.1094 52.6719 24.1662 51.9163 23.6656 50.9113C23.3469 50.2832 23.0956 49.5238 23.0956 48.7738L23.4144 47.33C23.5381 46.7019 23.855 46.0738 24.3575 45.5676L29.6375 39.2863H29.6394Z" fill="white"/>
</g>
<defs>
<clipPath id="clip0_16_880">
<rect width="45" height="45" fill="white" transform="translate(11 11)"/>
</clipPath>
</defs>
</svg>
