<svg width="67" height="67" viewBox="0 0 67 67" fill="none" xmlns="http://www.w3.org/2000/svg">
<circle cx="33.5" cy="33.5" r="32" stroke="white" stroke-width="3"/>
<g clip-path="url(#clip0_16_881)">
<path d="M21.5368 30.1142H22.8721C22.8721 30.1142 23.3733 30.1182 23.3733 30.6815V36.8372C23.3733 36.8372 23.4041 37.5001 22.8409 37.5001H21.4745C21.4745 37.5001 21.0684 37.4757 21.0684 36.9303V30.589C21.0684 30.589 21.07 30.1145 21.5368 30.1145V30.1142ZM22.2059 28.5831C21.4779 28.5831 20.9928 28.0694 21.008 27.4349C20.9928 26.7704 21.4779 26.2717 22.221 26.2717C22.9641 26.2717 23.4341 26.7704 23.4492 27.4349C23.4492 28.0694 22.9638 28.5831 22.2056 28.5831H22.2059ZM36.5056 37.5001H35.2632C34.6732 37.5001 34.7917 36.6518 34.7917 36.6518V33.4824C34.7917 32.4101 34.443 31.7908 33.6999 31.7908C33.1691 31.7908 32.7902 32.1533 32.6383 32.5914C32.5778 32.7576 32.5473 32.9991 32.5473 33.1804V36.7754C32.5473 36.7754 32.5545 37.5001 31.9091 37.5001H30.8844C30.8844 37.5001 30.3029 37.4559 30.3029 36.7136V33.3613C30.3029 32.4249 29.9693 31.7904 29.2414 31.7904C28.6501 31.7904 28.3011 32.2436 28.1647 32.6212C28.0888 32.8025 28.0737 33.0139 28.0737 33.1951V36.7136C28.0737 36.7136 28.1537 37.5001 27.5612 37.5001H26.5674C25.8293 37.5001 25.8293 36.7136 25.8293 36.7136V32.4704C25.8293 31.7503 25.7884 30.5592 25.7884 30.5592C25.7884 30.5592 25.7733 30.1142 26.2568 30.1142H27.2197C27.6746 30.1142 27.7571 30.557 27.7571 30.557L27.816 31.1112H27.8614C28.1798 30.6429 28.8319 29.9479 30.1057 29.9479C31.0611 29.9479 31.8193 30.4312 32.1378 31.2018H32.168C32.4411 30.8242 32.7747 30.5222 33.1234 30.3108C33.5329 30.0693 33.9878 29.9483 34.534 29.9483C35.9594 29.9483 37.036 30.9452 37.036 33.1506V36.7142C37.036 37.4481 36.5056 37.5008 36.5056 37.5008V37.5001ZM42.9498 31.5791C41.8429 31.5791 41.4331 32.7118 41.4331 33.7995C41.4331 35.068 41.9639 36.0199 42.9498 36.0199C43.8444 36.0199 44.4205 35.1286 44.4205 33.7995C44.4205 32.6968 43.9959 31.5791 42.9498 31.5791ZM42.889 37.666C40.7206 37.666 39.0526 36.2463 39.0526 33.8597C39.0526 31.4731 40.6298 29.9476 43.0103 29.9476C45.2852 29.9476 46.8016 31.5035 46.8016 33.7239C46.8016 36.4276 44.8757 37.666 42.8893 37.666H42.889ZM33.4195 14.9997C23.647 14.9997 15.7248 22.8906 15.7248 32.625C15.7248 35.9753 16.6632 39.1071 18.2924 41.7741C18.2924 41.7741 19.4503 44.7698 16.4776 46.9999C18.339 47.6249 22.2742 46.4758 22.4755 46.4758C25.4866 48.8396 29.2877 50.2502 33.4195 50.2502C43.1917 50.2502 51.1139 42.359 51.1139 32.625C51.1139 22.891 43.1917 14.9997 33.4195 14.9997ZM33.4195 53C29.1148 53 25.1187 51.6838 21.8147 49.4329C20.2564 50.2493 16.7514 50.4305 15.2224 50.2502C12.9998 49.988 10.6678 48.1543 12.9134 46.3708C16.391 43.6094 15.4574 42.5155 15.4574 42.5155C13.7891 39.5537 12.8382 36.1375 12.8382 32.5002C12.8382 21.178 22.0528 12 33.4192 12C44.7856 12 54.0003 21.178 54.0003 32.5002C54.0003 43.822 44.7856 53.0003 33.4192 53.0003L33.4195 53Z" fill="white"/>
</g>
<defs>
<clipPath id="clip0_16_881">
<rect width="42" height="41" fill="white" transform="translate(12 12)"/>
</clipPath>
</defs>
</svg>
