<svg width="600" height="600" viewBox="0 0 600 600" fill="none" xmlns="http://www.w3.org/2000/svg">
<circle cx="300" cy="300" r="300" fill="#E0F1E1"/>
<circle cx="300.5" cy="300.5" r="246.5" fill="#21B926"/>
<path d="M435.177 257.447C485.282 257.447 525.9 216.828 525.9 166.723C525.9 116.618 485.282 76 435.177 76C385.072 76 344.454 116.618 344.454 166.723C344.454 216.828 385.072 257.447 435.177 257.447Z" fill="#E43535"/>
<path d="M435.177 243.489C442.886 243.489 449.134 237.24 449.134 229.532C449.134 221.823 442.886 215.574 435.177 215.574C427.469 215.574 421.22 221.823 421.22 229.532C421.22 237.24 427.469 243.489 435.177 243.489Z" fill="#E0F1E1"/>
<path d="M400.281 140.735C400.281 121.464 415.903 105.841 435.174 105.841C454.446 105.841 470.068 121.464 470.068 140.735C470.068 160.006 454.446 175.628 435.174 175.628V194.917" stroke="#E0F1E1" stroke-width="4" stroke-linecap="round"/>
<path fill-rule="evenodd" clip-rule="evenodd" d="M339.083 406.087C295.731 437.584 223.137 425.704 191.64 382.352C160.143 339 144.185 169.443 144.185 169.443C144.185 169.443 308.376 217.549 347.334 260.401C386.292 303.252 382.435 374.59 339.083 406.087Z" fill="#E0F1E1"/>
<path d="M185.597 217.271C185.597 217.271 287.326 279.712 324.321 394.713C333.839 424.302 348.162 445.414 364.187 460.451" stroke="#22BA8E" stroke-width="3" stroke-linecap="round"/>
<path d="M240.136 362.372L308.129 359.489L341.041 301.496" stroke="#22BA8E" stroke-width="2" stroke-linecap="round"/>
<path d="M219.249 301.698L265.622 292.214L280.515 254.404" stroke="#22BA8E" stroke-width="2" stroke-linecap="round"/>
</svg>
