<svg width="128" height="114" viewBox="0 0 128 114" fill="none" xmlns="http://www.w3.org/2000/svg">
<path d="M56.6043 14.1716C50.9296 5.29781 41.2457 0 30.6999 0C24.8455 0 19.1324 1.67444 14.1785 4.84251C7.26647 9.26266 2.48959 16.1102 0.727461 24.1232C-1.03466 32.1365 0.429281 40.3562 4.84971 47.2683L38.103 99.2683C43.7777 108.142 53.4613 113.44 64.0074 113.44C64.0077 113.44 64.0077 113.44 64.0079 113.44C69.8618 113.44 75.5752 111.765 80.5288 108.597C87.4408 104.177 92.2177 97.33 93.9798 89.3167C95.742 81.3034 94.278 73.0837 89.8576 66.1716L56.6043 14.1716ZM4.71682 25.0006C6.24448 18.0529 10.3863 12.1162 16.3794 8.2837C20.6745 5.5369 25.6268 4.08494 30.6999 4.08494C39.8455 4.08494 48.243 8.67828 53.1631 16.3724L68.6895 40.6517L23.8173 69.347L8.2909 45.0678C4.4584 39.0747 3.18915 31.9481 4.71682 25.0006ZM89.9905 88.4393C88.4628 95.387 84.321 101.324 78.3279 105.156C74.0325 107.903 69.0805 109.355 64.0074 109.355C54.8618 109.355 46.4643 104.761 41.5442 97.0675L26.0178 72.7882L70.89 44.0926L86.4164 68.3719C90.2486 74.3652 91.5179 81.4918 89.9905 88.4393Z" fill="#21B926"/>
<path d="M23.9581 61.9853C24.348 62.5948 25.0073 62.9275 25.6805 62.9275C26.0571 62.9275 26.438 62.8235 26.779 62.6054C27.7291 61.9979 28.0068 60.7349 27.399 59.7845L15.1733 40.6664C12.5164 36.5117 11.6366 31.5715 12.6956 26.7551C13.7546 21.9385 16.6258 17.823 20.7802 15.1661C21.7303 14.5586 22.0081 13.2953 21.4003 12.3452C20.7925 11.3948 19.5298 11.1171 18.5794 11.7249C13.5057 14.9695 9.99943 19.9958 8.70595 25.8777C7.41275 31.7596 8.48729 37.7932 11.7319 42.8669L23.9581 61.9853Z" fill="#21B926"/>
<path d="M64.0079 101.185C57.6625 101.185 51.8378 98.0004 48.4263 92.6661L36.2003 73.5477C35.5925 72.5974 34.3298 72.3199 33.3794 72.9274C32.4293 73.5349 32.1516 74.7979 32.7594 75.7483L44.9853 94.8667C49.1509 101.381 56.2623 105.27 64.0079 105.27C65.1358 105.27 66.0502 104.356 66.0502 103.228C66.0502 102.1 65.1361 101.185 64.0079 101.185Z" fill="#21B926"/>
<path d="M80.1543 69.9525C79.2042 70.56 78.9264 71.8233 79.5342 72.7734C82.1912 76.928 83.071 81.8683 82.012 86.6847C81.7696 87.7864 82.4665 88.8757 83.5682 89.118C83.7158 89.1504 83.8634 89.166 84.0086 89.166C84.9467 89.166 85.7917 88.5157 86.0013 87.5618C87.2945 81.6796 86.22 75.6463 82.9754 70.5726C82.3676 69.6222 81.1046 69.3447 80.1543 69.9525Z" fill="#21B926"/>
<path d="M127.273 24.1231C125.51 16.11 120.734 9.2625 113.821 4.84234C99.5527 -4.28198 80.5208 -0.0976528 71.3957 14.1714L67.1275 20.8458C66.52 21.7959 66.7974 23.0589 67.7475 23.6667C68.6979 24.2742 69.9612 23.9967 70.5684 23.0463L74.8366 16.372C82.7481 4.0009 99.2493 0.372356 111.62 8.28354C117.613 12.116 121.755 18.0527 123.283 25.0004C124.81 31.9479 123.541 39.0746 119.709 45.0676L104.182 69.3468L98.6554 65.8122C97.7048 65.2047 96.4418 65.4822 95.8345 66.4326C95.227 67.3827 95.5045 68.6457 96.4546 69.2534L101.982 72.788L98.9016 77.6047C98.294 78.5548 98.5715 79.8177 99.5216 80.4256C99.8626 80.6434 100.244 80.7477 100.62 80.7477C101.294 80.7477 101.953 80.4149 102.342 79.8055L123.15 47.2681C127.571 40.3561 129.035 32.1364 127.273 24.1231Z" fill="#21B926"/>
<path d="M79.9969 21.7156C80.6703 21.7156 81.3296 21.3828 81.7193 20.7734C85.1272 15.4448 90.9539 12.2634 97.3058 12.2634C100.822 12.2634 104.25 13.2671 107.22 15.1662C108.17 15.7737 109.433 15.4963 110.04 14.5459C110.648 13.5955 110.37 12.3328 109.42 11.725C105.792 9.40493 101.603 8.17871 97.3058 8.17871C89.5534 8.17871 82.4403 12.0643 78.2781 18.5728C77.6705 19.5229 77.948 20.7859 78.8981 21.3937C79.2393 21.6115 79.6203 21.7156 79.9969 21.7156Z" fill="#21B926"/>
</svg>
