<svg width="44" height="43" viewBox="0 0 44 43" fill="none" xmlns="http://www.w3.org/2000/svg">
<circle cx="22" cy="21.0787" r="20.5787" stroke="white"/>
<path d="M13.0303 17.5811C13.1112 16.336 14.1122 15.3603 15.3583 15.2985C17.1629 15.2091 19.7421 15.1013 21.6854 15.1013C23.6288 15.1013 26.208 15.2091 28.0125 15.2985C29.2587 15.3603 30.2597 16.336 30.3406 17.5811C30.418 18.774 30.4944 20.2418 30.4944 21.3935C30.4944 22.5451 30.418 24.0129 30.3406 25.2058C30.2597 26.4509 29.2587 27.4266 28.0125 27.4884C26.208 27.5778 23.6288 27.6856 21.6854 27.6856C19.7421 27.6856 17.1629 27.5778 15.3583 27.4884C14.1122 27.4266 13.1112 26.4509 13.0303 25.2058C12.9528 24.0129 12.8764 22.5451 12.8764 21.3935C12.8764 20.2418 12.9528 18.774 13.0303 17.5811Z" fill="white"/>
<path d="M19.7978 18.8765V23.9102L24.8315 21.3933L19.7978 18.8765Z" fill="#343434"/>
</svg>
